<mxfile host="app.diagrams.net" agent="Mozilla/5.0 (X11; Linux x86_64) AppleWebKit/537.36 (KHTML, like Gecko) Chrome/104.0.0.0 Safari/537.36" version="24.8.3" pages="2">
  <diagram id="R2lEEEUBdFMjLlhIrx00" name="Page-1">
    <mxGraphModel dx="3241" dy="2260" grid="1" gridSize="10" guides="1" tooltips="1" connect="1" arrows="1" fold="1" page="1" pageScale="1" pageWidth="850" pageHeight="1100" background="#FFFFFF" math="0" shadow="0" extFonts="Permanent Marker^https://fonts.googleapis.com/css?family=Permanent+Marker">
      <root>
        <mxCell id="0" />
        <mxCell id="1" parent="0" />
        <mxCell id="LM7p9zs2FSxzEGgW7MU9-7" value="" style="edgeStyle=orthogonalEdgeStyle;rounded=1;orthogonalLoop=1;jettySize=auto;html=1;fontFamily=Lucida Console;sketch=1;curveFitting=1;jiggle=2;" parent="1" source="LM7p9zs2FSxzEGgW7MU9-1" target="LM7p9zs2FSxzEGgW7MU9-6" edge="1">
          <mxGeometry relative="1" as="geometry" />
        </mxCell>
        <mxCell id="LM7p9zs2FSxzEGgW7MU9-16" value="" style="edgeStyle=orthogonalEdgeStyle;rounded=1;orthogonalLoop=1;jettySize=auto;html=1;fontFamily=Lucida Console;sketch=1;curveFitting=1;jiggle=2;" parent="1" source="LM7p9zs2FSxzEGgW7MU9-1" target="LM7p9zs2FSxzEGgW7MU9-15" edge="1">
          <mxGeometry relative="1" as="geometry" />
        </mxCell>
        <mxCell id="LM7p9zs2FSxzEGgW7MU9-26" value="" style="edgeStyle=orthogonalEdgeStyle;rounded=1;orthogonalLoop=1;jettySize=auto;html=1;fontFamily=Lucida Console;sketch=1;curveFitting=1;jiggle=2;" parent="1" source="LM7p9zs2FSxzEGgW7MU9-1" target="LM7p9zs2FSxzEGgW7MU9-25" edge="1">
          <mxGeometry relative="1" as="geometry" />
        </mxCell>
        <mxCell id="LM7p9zs2FSxzEGgW7MU9-31" style="edgeStyle=orthogonalEdgeStyle;rounded=1;orthogonalLoop=1;jettySize=auto;html=1;exitX=0;exitY=0.75;exitDx=0;exitDy=0;fontFamily=Lucida Console;sketch=1;curveFitting=1;jiggle=2;" parent="1" source="LM7p9zs2FSxzEGgW7MU9-1" target="LM7p9zs2FSxzEGgW7MU9-30" edge="1">
          <mxGeometry relative="1" as="geometry">
            <Array as="points">
              <mxPoint x="170" y="350" />
            </Array>
          </mxGeometry>
        </mxCell>
        <mxCell id="LM7p9zs2FSxzEGgW7MU9-37" style="edgeStyle=orthogonalEdgeStyle;rounded=1;orthogonalLoop=1;jettySize=auto;html=1;exitX=0;exitY=0.5;exitDx=0;exitDy=0;fontFamily=Lucida Console;sketch=1;curveFitting=1;jiggle=2;" parent="1" source="LM7p9zs2FSxzEGgW7MU9-1" target="LM7p9zs2FSxzEGgW7MU9-35" edge="1">
          <mxGeometry relative="1" as="geometry">
            <Array as="points">
              <mxPoint x="170" y="300" />
              <mxPoint x="145" y="300" />
            </Array>
          </mxGeometry>
        </mxCell>
        <mxCell id="LM7p9zs2FSxzEGgW7MU9-38" style="edgeStyle=orthogonalEdgeStyle;rounded=1;orthogonalLoop=1;jettySize=auto;html=1;exitX=0;exitY=0;exitDx=0;exitDy=0;entryX=0.582;entryY=1;entryDx=0;entryDy=0;entryPerimeter=0;fontFamily=Lucida Console;sketch=1;curveFitting=1;jiggle=2;" parent="1" source="LM7p9zs2FSxzEGgW7MU9-1" target="LM7p9zs2FSxzEGgW7MU9-39" edge="1">
          <mxGeometry relative="1" as="geometry">
            <mxPoint x="160" y="259.9999999999999" as="targetPoint" />
          </mxGeometry>
        </mxCell>
        <mxCell id="LM7p9zs2FSxzEGgW7MU9-40" style="edgeStyle=orthogonalEdgeStyle;rounded=1;orthogonalLoop=1;jettySize=auto;html=1;exitX=0.002;exitY=0.947;exitDx=0;exitDy=0;entryX=0.911;entryY=0.833;entryDx=0;entryDy=0;entryPerimeter=0;exitPerimeter=0;fontFamily=Lucida Console;sketch=1;curveFitting=1;jiggle=2;" parent="1" source="LM7p9zs2FSxzEGgW7MU9-1" target="LM7p9zs2FSxzEGgW7MU9-41" edge="1">
          <mxGeometry relative="1" as="geometry">
            <mxPoint x="35" y="347.4875" as="targetPoint" />
            <mxPoint x="165" y="320.00000000000006" as="sourcePoint" />
            <Array as="points">
              <mxPoint x="165" y="318" />
              <mxPoint x="165" y="327" />
              <mxPoint x="47" y="327" />
              <mxPoint x="47" y="347" />
            </Array>
          </mxGeometry>
        </mxCell>
        <mxCell id="weSuXQi-t28DzRPvCcAY-5" style="edgeStyle=orthogonalEdgeStyle;rounded=0;sketch=1;hachureGap=4;jiggle=2;curveFitting=1;orthogonalLoop=1;jettySize=auto;html=1;entryX=0;entryY=0.5;entryDx=0;entryDy=0;fontFamily=Architects Daughter;fontSource=https%3A%2F%2Ffonts.googleapis.com%2Fcss%3Ffamily%3DArchitects%2BDaughter;" parent="1" source="LM7p9zs2FSxzEGgW7MU9-1" target="weSuXQi-t28DzRPvCcAY-1" edge="1">
          <mxGeometry relative="1" as="geometry" />
        </mxCell>
        <mxCell id="weSuXQi-t28DzRPvCcAY-6" style="edgeStyle=orthogonalEdgeStyle;rounded=0;sketch=1;hachureGap=4;jiggle=2;curveFitting=1;orthogonalLoop=1;jettySize=auto;html=1;exitX=1;exitY=0;exitDx=0;exitDy=0;entryX=0.5;entryY=1;entryDx=0;entryDy=0;fontFamily=Architects Daughter;fontSource=https%3A%2F%2Ffonts.googleapis.com%2Fcss%3Ffamily%3DArchitects%2BDaughter;" parent="1" source="LM7p9zs2FSxzEGgW7MU9-1" target="LM7p9zs2FSxzEGgW7MU9-67" edge="1">
          <mxGeometry relative="1" as="geometry" />
        </mxCell>
        <mxCell id="weSuXQi-t28DzRPvCcAY-7" style="edgeStyle=orthogonalEdgeStyle;rounded=0;sketch=1;hachureGap=4;jiggle=2;curveFitting=1;orthogonalLoop=1;jettySize=auto;html=1;exitX=1;exitY=1;exitDx=0;exitDy=0;fontFamily=Architects Daughter;fontSource=https%3A%2F%2Ffonts.googleapis.com%2Fcss%3Ffamily%3DArchitects%2BDaughter;" parent="1" source="LM7p9zs2FSxzEGgW7MU9-1" target="LM7p9zs2FSxzEGgW7MU9-82" edge="1">
          <mxGeometry relative="1" as="geometry" />
        </mxCell>
        <mxCell id="LM7p9zs2FSxzEGgW7MU9-1" value="&lt;b&gt;user&lt;/b&gt;" style="rounded=1;whiteSpace=wrap;html=1;fillColor=#dae8fc;strokeColor=#6c8ebf;fontFamily=Lucida Console;sketch=1;curveFitting=1;jiggle=2;" parent="1" vertex="1">
          <mxGeometry x="170" y="262.5" width="90" height="50" as="geometry" />
        </mxCell>
        <mxCell id="LM7p9zs2FSxzEGgW7MU9-5" value="" style="edgeStyle=orthogonalEdgeStyle;rounded=1;orthogonalLoop=1;jettySize=auto;html=1;fontFamily=Lucida Console;sketch=1;curveFitting=1;jiggle=2;" parent="1" edge="1">
          <mxGeometry relative="1" as="geometry">
            <mxPoint x="410" y="296.25" as="sourcePoint" />
          </mxGeometry>
        </mxCell>
        <mxCell id="LM7p9zs2FSxzEGgW7MU9-9" value="" style="edgeStyle=orthogonalEdgeStyle;rounded=1;orthogonalLoop=1;jettySize=auto;html=1;fontFamily=Lucida Console;sketch=1;curveFitting=1;jiggle=2;" parent="1" source="LM7p9zs2FSxzEGgW7MU9-6" target="LM7p9zs2FSxzEGgW7MU9-8" edge="1">
          <mxGeometry relative="1" as="geometry" />
        </mxCell>
        <mxCell id="LM7p9zs2FSxzEGgW7MU9-6" value="&lt;b&gt;has&lt;/b&gt;" style="rhombus;whiteSpace=wrap;html=1;rounded=1;fillColor=#f8cecc;strokeColor=#b85450;fontFamily=Lucida Console;sketch=1;curveFitting=1;jiggle=2;" parent="1" vertex="1">
          <mxGeometry x="177.5" y="380" width="70" height="70" as="geometry" />
        </mxCell>
        <mxCell id="LM7p9zs2FSxzEGgW7MU9-74" style="edgeStyle=orthogonalEdgeStyle;rounded=1;orthogonalLoop=1;jettySize=auto;html=1;entryX=1;entryY=0.5;entryDx=0;entryDy=0;sketch=1;curveFitting=1;jiggle=2;" parent="1" source="LM7p9zs2FSxzEGgW7MU9-8" target="LM7p9zs2FSxzEGgW7MU9-73" edge="1">
          <mxGeometry relative="1" as="geometry" />
        </mxCell>
        <mxCell id="LM7p9zs2FSxzEGgW7MU9-77" style="edgeStyle=orthogonalEdgeStyle;rounded=1;orthogonalLoop=1;jettySize=auto;html=1;entryX=0.5;entryY=0;entryDx=0;entryDy=0;sketch=1;curveFitting=1;jiggle=2;" parent="1" source="LM7p9zs2FSxzEGgW7MU9-8" target="LM7p9zs2FSxzEGgW7MU9-75" edge="1">
          <mxGeometry relative="1" as="geometry" />
        </mxCell>
        <mxCell id="LM7p9zs2FSxzEGgW7MU9-79" style="edgeStyle=orthogonalEdgeStyle;rounded=1;orthogonalLoop=1;jettySize=auto;html=1;entryX=0.5;entryY=0;entryDx=0;entryDy=0;sketch=1;curveFitting=1;jiggle=2;" parent="1" source="LM7p9zs2FSxzEGgW7MU9-8" target="LM7p9zs2FSxzEGgW7MU9-78" edge="1">
          <mxGeometry relative="1" as="geometry" />
        </mxCell>
        <mxCell id="LM7p9zs2FSxzEGgW7MU9-94" style="edgeStyle=orthogonalEdgeStyle;rounded=1;hachureGap=4;orthogonalLoop=1;jettySize=auto;html=1;exitX=1;exitY=0.25;exitDx=0;exitDy=0;fontFamily=Architects Daughter;fontSource=https%3A%2F%2Ffonts.googleapis.com%2Fcss%3Ffamily%3DArchitects%2BDaughter;sketch=1;curveFitting=1;jiggle=2;" parent="1" source="LM7p9zs2FSxzEGgW7MU9-8" target="LM7p9zs2FSxzEGgW7MU9-92" edge="1">
          <mxGeometry relative="1" as="geometry" />
        </mxCell>
        <mxCell id="LM7p9zs2FSxzEGgW7MU9-8" value="&lt;b&gt;login&lt;/b&gt;" style="whiteSpace=wrap;html=1;rounded=1;fillColor=#dae8fc;strokeColor=#6c8ebf;fontFamily=Lucida Console;sketch=1;curveFitting=1;jiggle=2;" parent="1" vertex="1">
          <mxGeometry x="165" y="510" width="95" height="42.75" as="geometry" />
        </mxCell>
        <mxCell id="LM7p9zs2FSxzEGgW7MU9-18" value="" style="edgeStyle=orthogonalEdgeStyle;rounded=1;orthogonalLoop=1;jettySize=auto;html=1;fontFamily=Lucida Console;sketch=1;curveFitting=1;jiggle=2;" parent="1" source="LM7p9zs2FSxzEGgW7MU9-15" target="LM7p9zs2FSxzEGgW7MU9-17" edge="1">
          <mxGeometry relative="1" as="geometry" />
        </mxCell>
        <mxCell id="LM7p9zs2FSxzEGgW7MU9-15" value="&lt;b&gt;has&lt;/b&gt;" style="rhombus;whiteSpace=wrap;html=1;rounded=1;fillColor=#f8cecc;strokeColor=#b85450;fontFamily=Lucida Console;sketch=1;curveFitting=1;jiggle=2;" parent="1" vertex="1">
          <mxGeometry x="181.25" y="100" width="62.5" height="62.5" as="geometry" />
        </mxCell>
        <mxCell id="LM7p9zs2FSxzEGgW7MU9-24" value="" style="edgeStyle=orthogonalEdgeStyle;rounded=1;orthogonalLoop=1;jettySize=auto;html=1;fontFamily=Lucida Console;entryX=0.5;entryY=1;entryDx=0;entryDy=0;sketch=1;curveFitting=1;jiggle=2;" parent="1" source="LM7p9zs2FSxzEGgW7MU9-17" target="LM7p9zs2FSxzEGgW7MU9-44" edge="1">
          <mxGeometry relative="1" as="geometry">
            <mxPoint x="205" y="-25" as="targetPoint" />
          </mxGeometry>
        </mxCell>
        <mxCell id="LM7p9zs2FSxzEGgW7MU9-45" value="" style="edgeStyle=orthogonalEdgeStyle;rounded=1;orthogonalLoop=1;jettySize=auto;html=1;sketch=1;curveFitting=1;jiggle=2;" parent="1" source="LM7p9zs2FSxzEGgW7MU9-17" target="LM7p9zs2FSxzEGgW7MU9-44" edge="1">
          <mxGeometry relative="1" as="geometry" />
        </mxCell>
        <mxCell id="LM7p9zs2FSxzEGgW7MU9-48" style="edgeStyle=orthogonalEdgeStyle;rounded=1;orthogonalLoop=1;jettySize=auto;html=1;entryX=0.603;entryY=0.932;entryDx=0;entryDy=0;entryPerimeter=0;sketch=1;curveFitting=1;jiggle=2;" parent="1" source="LM7p9zs2FSxzEGgW7MU9-17" target="LM7p9zs2FSxzEGgW7MU9-49" edge="1">
          <mxGeometry relative="1" as="geometry">
            <mxPoint x="255" y="-120" as="targetPoint" />
          </mxGeometry>
        </mxCell>
        <mxCell id="LM7p9zs2FSxzEGgW7MU9-51" style="edgeStyle=orthogonalEdgeStyle;rounded=1;orthogonalLoop=1;jettySize=auto;html=1;entryX=0.505;entryY=1.054;entryDx=0;entryDy=0;entryPerimeter=0;sketch=1;curveFitting=1;jiggle=2;" parent="1" source="LM7p9zs2FSxzEGgW7MU9-17" target="LM7p9zs2FSxzEGgW7MU9-52" edge="1">
          <mxGeometry relative="1" as="geometry">
            <mxPoint x="155" y="-120" as="targetPoint" />
          </mxGeometry>
        </mxCell>
        <mxCell id="LM7p9zs2FSxzEGgW7MU9-90" style="edgeStyle=orthogonalEdgeStyle;rounded=1;hachureGap=4;orthogonalLoop=1;jettySize=auto;html=1;entryX=0;entryY=0.5;entryDx=0;entryDy=0;fontFamily=Architects Daughter;fontSource=https%3A%2F%2Ffonts.googleapis.com%2Fcss%3Ffamily%3DArchitects%2BDaughter;sketch=1;curveFitting=1;jiggle=2;" parent="1" source="LM7p9zs2FSxzEGgW7MU9-17" target="LM7p9zs2FSxzEGgW7MU9-56" edge="1">
          <mxGeometry relative="1" as="geometry" />
        </mxCell>
        <mxCell id="LM7p9zs2FSxzEGgW7MU9-105" style="edgeStyle=orthogonalEdgeStyle;rounded=0;sketch=1;hachureGap=4;jiggle=2;curveFitting=1;orthogonalLoop=1;jettySize=auto;html=1;exitX=0;exitY=0.75;exitDx=0;exitDy=0;fontFamily=Architects Daughter;fontSource=https%3A%2F%2Ffonts.googleapis.com%2Fcss%3Ffamily%3DArchitects%2BDaughter;entryX=0.953;entryY=0.575;entryDx=0;entryDy=0;entryPerimeter=0;" parent="1" source="LM7p9zs2FSxzEGgW7MU9-17" target="LM7p9zs2FSxzEGgW7MU9-106" edge="1">
          <mxGeometry relative="1" as="geometry">
            <mxPoint x="30" y="37.65853658536594" as="targetPoint" />
          </mxGeometry>
        </mxCell>
        <mxCell id="weSuXQi-t28DzRPvCcAY-4" style="edgeStyle=orthogonalEdgeStyle;rounded=0;sketch=1;hachureGap=4;jiggle=2;curveFitting=1;orthogonalLoop=1;jettySize=auto;html=1;exitX=1;exitY=0;exitDx=0;exitDy=0;entryX=0;entryY=1;entryDx=0;entryDy=0;fontFamily=Architects Daughter;fontSource=https%3A%2F%2Ffonts.googleapis.com%2Fcss%3Ffamily%3DArchitects%2BDaughter;" parent="1" source="LM7p9zs2FSxzEGgW7MU9-17" target="weSuXQi-t28DzRPvCcAY-3" edge="1">
          <mxGeometry relative="1" as="geometry" />
        </mxCell>
        <mxCell id="LM7p9zs2FSxzEGgW7MU9-17" value="&lt;b&gt;rate&lt;/b&gt;" style="whiteSpace=wrap;html=1;rounded=1;fillColor=#dae8fc;strokeColor=#6c8ebf;fontFamily=Lucida Console;sketch=1;curveFitting=1;jiggle=2;" parent="1" vertex="1">
          <mxGeometry x="140" width="115" height="50" as="geometry" />
        </mxCell>
        <mxCell id="LM7p9zs2FSxzEGgW7MU9-25" value="type" style="ellipse;whiteSpace=wrap;html=1;fillColor=#f5f5f5;strokeColor=#666666;rounded=1;fontColor=#333333;fontFamily=Lucida Console;sketch=1;curveFitting=1;jiggle=2;" parent="1" vertex="1">
          <mxGeometry x="40" y="288.75" width="40" height="32.5" as="geometry" />
        </mxCell>
        <mxCell id="LM7p9zs2FSxzEGgW7MU9-30" value="name" style="ellipse;whiteSpace=wrap;html=1;fillColor=#f5f5f5;strokeColor=#666666;rounded=1;fontColor=#333333;fontFamily=Lucida Console;sketch=1;curveFitting=1;jiggle=2;" parent="1" vertex="1">
          <mxGeometry x="70" y="417.5" width="40" height="32.5" as="geometry" />
        </mxCell>
        <mxCell id="LM7p9zs2FSxzEGgW7MU9-32" style="edgeStyle=orthogonalEdgeStyle;rounded=1;orthogonalLoop=1;jettySize=auto;html=1;exitX=0.016;exitY=0.656;exitDx=0;exitDy=0;fontFamily=Lucida Console;exitPerimeter=0;sketch=1;curveFitting=1;jiggle=2;" parent="1" source="LM7p9zs2FSxzEGgW7MU9-1" target="LM7p9zs2FSxzEGgW7MU9-33" edge="1">
          <mxGeometry relative="1" as="geometry">
            <mxPoint x="170" y="350" as="sourcePoint" />
            <Array as="points">
              <mxPoint x="170" y="310" />
              <mxPoint x="170" y="387" />
            </Array>
          </mxGeometry>
        </mxCell>
        <mxCell id="LM7p9zs2FSxzEGgW7MU9-33" value="contact" style="ellipse;whiteSpace=wrap;html=1;fillColor=#f5f5f5;strokeColor=#666666;rounded=1;fontColor=#333333;fontFamily=Lucida Console;sketch=1;curveFitting=1;jiggle=2;" parent="1" vertex="1">
          <mxGeometry x="-10" y="372.5" width="50" height="32.5" as="geometry" />
        </mxCell>
        <mxCell id="LM7p9zs2FSxzEGgW7MU9-35" value="address" style="ellipse;whiteSpace=wrap;html=1;fillColor=#f5f5f5;strokeColor=#666666;rounded=1;fontColor=#333333;fontFamily=Lucida Console;sketch=1;curveFitting=1;jiggle=2;" parent="1" vertex="1">
          <mxGeometry x="-10" y="257.5" width="50" height="32.5" as="geometry" />
        </mxCell>
        <mxCell id="LM7p9zs2FSxzEGgW7MU9-39" value="&lt;b&gt;&lt;u&gt;userId&lt;/u&gt;&lt;/b&gt;" style="ellipse;whiteSpace=wrap;html=1;fillColor=#f5f5f5;strokeColor=#666666;rounded=1;fontColor=#333333;fontFamily=Lucida Console;sketch=1;curveFitting=1;jiggle=2;" parent="1" vertex="1">
          <mxGeometry x="55" y="215" width="50" height="32.5" as="geometry" />
        </mxCell>
        <mxCell id="LM7p9zs2FSxzEGgW7MU9-41" value="status" style="ellipse;whiteSpace=wrap;html=1;fillColor=#f5f5f5;strokeColor=#666666;rounded=1;fontColor=#333333;fontFamily=Lucida Console;sketch=1;curveFitting=1;jiggle=2;" parent="1" vertex="1">
          <mxGeometry x="-10" y="320" width="50" height="32.5" as="geometry" />
        </mxCell>
        <mxCell id="LM7p9zs2FSxzEGgW7MU9-42" value="(available status)" style="text;html=1;align=center;verticalAlign=middle;resizable=0;points=[];autosize=1;strokeColor=none;fillColor=none;fontSize=5;fontFamily=Lucida Console;rounded=1;sketch=1;curveFitting=1;jiggle=2;" parent="1" vertex="1">
          <mxGeometry x="-25" y="352.5" width="80" height="20" as="geometry" />
        </mxCell>
        <mxCell id="LM7p9zs2FSxzEGgW7MU9-43" value="(user type)&lt;div&gt;worker / customer&lt;/div&gt;" style="text;html=1;align=center;verticalAlign=middle;resizable=0;points=[];autosize=1;strokeColor=none;fillColor=none;fontSize=5;fontFamily=Lucida Console;rounded=1;sketch=1;curveFitting=1;jiggle=2;" parent="1" vertex="1">
          <mxGeometry x="-25" y="291.25" width="70" height="30" as="geometry" />
        </mxCell>
        <mxCell id="LM7p9zs2FSxzEGgW7MU9-44" value="&lt;b&gt;&lt;u&gt;ratingId&lt;/u&gt;&lt;/b&gt;" style="ellipse;whiteSpace=wrap;html=1;fillColor=#f5f5f5;strokeColor=#666666;rounded=1;fontColor=#333333;fontFamily=Lucida Console;sketch=1;curveFitting=1;jiggle=2;" parent="1" vertex="1">
          <mxGeometry x="167.5" y="-112" width="75" height="32.5" as="geometry" />
        </mxCell>
        <mxCell id="LM7p9zs2FSxzEGgW7MU9-49" value="&lt;b&gt;username&lt;/b&gt;" style="ellipse;whiteSpace=wrap;html=1;fillColor=#f5f5f5;strokeColor=#666666;rounded=1;fontColor=#333333;fontFamily=Lucida Console;sketch=1;curveFitting=1;jiggle=2;" parent="1" vertex="1">
          <mxGeometry x="255" y="-120" width="85" height="52.5" as="geometry" />
        </mxCell>
        <mxCell id="LM7p9zs2FSxzEGgW7MU9-52" value="starts" style="ellipse;whiteSpace=wrap;html=1;fillColor=#f5f5f5;strokeColor=#666666;rounded=1;fontColor=#333333;fontFamily=Lucida Console;sketch=1;curveFitting=1;jiggle=2;" parent="1" vertex="1">
          <mxGeometry x="105" y="-160" width="50" height="32.5" as="geometry" />
        </mxCell>
        <mxCell id="LM7p9zs2FSxzEGgW7MU9-56" value="comment" style="ellipse;whiteSpace=wrap;html=1;fillColor=#f5f5f5;strokeColor=#666666;rounded=1;fontColor=#333333;fontFamily=Lucida Console;sketch=1;curveFitting=1;jiggle=2;" parent="1" vertex="1">
          <mxGeometry x="335" y="-20" width="70" height="39.5" as="geometry" />
        </mxCell>
        <mxCell id="LM7p9zs2FSxzEGgW7MU9-58" value="(count of stars)" style="text;html=1;align=center;verticalAlign=middle;resizable=0;points=[];autosize=1;strokeColor=none;fillColor=none;fontSize=5;fontFamily=Lucida Console;rounded=1;sketch=1;curveFitting=1;jiggle=2;" parent="1" vertex="1">
          <mxGeometry x="95" y="-180" width="70" height="20" as="geometry" />
        </mxCell>
        <mxCell id="LM7p9zs2FSxzEGgW7MU9-67" value="service" style="ellipse;whiteSpace=wrap;html=1;fillColor=#f5f5f5;strokeColor=#666666;rounded=1;fontColor=#333333;fontFamily=Lucida Console;sketch=1;curveFitting=1;jiggle=2;" parent="1" vertex="1">
          <mxGeometry x="360" y="192.5" width="60" height="40" as="geometry" />
        </mxCell>
        <mxCell id="LM7p9zs2FSxzEGgW7MU9-68" value="(service type)&lt;div&gt;ex:-carpenter&lt;br&gt;&lt;/div&gt;" style="text;html=1;align=center;verticalAlign=middle;resizable=0;points=[];autosize=1;strokeColor=none;fillColor=none;fontSize=5;fontFamily=Lucida Console;rounded=1;sketch=1;curveFitting=1;jiggle=2;" parent="1" vertex="1">
          <mxGeometry x="300" y="201.25" width="70" height="30" as="geometry" />
        </mxCell>
        <mxCell id="LM7p9zs2FSxzEGgW7MU9-73" value="&lt;b&gt;&lt;u&gt;loginId&lt;/u&gt;&lt;/b&gt;" style="ellipse;whiteSpace=wrap;html=1;fillColor=#f5f5f5;strokeColor=#666666;rounded=1;fontColor=#333333;fontFamily=Lucida Console;sketch=1;curveFitting=1;jiggle=2;" parent="1" vertex="1">
          <mxGeometry x="55" y="520.25" width="70" height="32.5" as="geometry" />
        </mxCell>
        <mxCell id="LM7p9zs2FSxzEGgW7MU9-75" value="&lt;b&gt;userId&lt;/b&gt;" style="ellipse;whiteSpace=wrap;html=1;fillColor=#f5f5f5;strokeColor=#666666;rounded=1;fontColor=#333333;fontFamily=Lucida Console;sketch=1;curveFitting=1;jiggle=2;" parent="1" vertex="1">
          <mxGeometry x="145" y="590" width="50" height="32.5" as="geometry" />
        </mxCell>
        <mxCell id="LM7p9zs2FSxzEGgW7MU9-78" value="active" style="ellipse;whiteSpace=wrap;html=1;fillColor=#f5f5f5;strokeColor=#666666;rounded=1;fontColor=#333333;fontFamily=Lucida Console;sketch=1;curveFitting=1;jiggle=2;" parent="1" vertex="1">
          <mxGeometry x="220" y="590" width="50" height="32.5" as="geometry" />
        </mxCell>
        <mxCell id="LM7p9zs2FSxzEGgW7MU9-82" value="remark" style="ellipse;whiteSpace=wrap;html=1;fillColor=#f5f5f5;strokeColor=#666666;rounded=1;fontColor=#333333;fontFamily=Lucida Console;sketch=1;curveFitting=1;jiggle=2;" parent="1" vertex="1">
          <mxGeometry x="375" y="336.25" width="60" height="40" as="geometry" />
        </mxCell>
        <mxCell id="LM7p9zs2FSxzEGgW7MU9-83" value="creadt" style="ellipse;whiteSpace=wrap;html=1;fillColor=#f5f5f5;strokeColor=#666666;rounded=1;fontColor=#333333;fontFamily=Lucida Console;sketch=1;curveFitting=1;jiggle=2;" parent="1" vertex="1">
          <mxGeometry x="280" y="557.5" width="50" height="32.5" as="geometry" />
        </mxCell>
        <mxCell id="LM7p9zs2FSxzEGgW7MU9-84" style="edgeStyle=orthogonalEdgeStyle;rounded=1;hachureGap=4;orthogonalLoop=1;jettySize=auto;html=1;entryX=0.6;entryY=0.077;entryDx=0;entryDy=0;entryPerimeter=0;fontFamily=Architects Daughter;fontSource=https%3A%2F%2Ffonts.googleapis.com%2Fcss%3Ffamily%3DArchitects%2BDaughter;sketch=1;curveFitting=1;jiggle=2;" parent="1" source="LM7p9zs2FSxzEGgW7MU9-8" target="LM7p9zs2FSxzEGgW7MU9-83" edge="1">
          <mxGeometry relative="1" as="geometry" />
        </mxCell>
        <mxCell id="LM7p9zs2FSxzEGgW7MU9-85" value="creadt" style="ellipse;whiteSpace=wrap;html=1;fillColor=#f5f5f5;strokeColor=#666666;rounded=1;fontColor=#333333;fontFamily=Lucida Console;sketch=1;curveFitting=1;jiggle=2;" parent="1" vertex="1">
          <mxGeometry x="110" y="182.5" width="50" height="32.5" as="geometry" />
        </mxCell>
        <mxCell id="LM7p9zs2FSxzEGgW7MU9-86" style="edgeStyle=orthogonalEdgeStyle;rounded=1;hachureGap=4;orthogonalLoop=1;jettySize=auto;html=1;exitX=0.25;exitY=0;exitDx=0;exitDy=0;entryX=0.614;entryY=0.908;entryDx=0;entryDy=0;entryPerimeter=0;fontFamily=Architects Daughter;fontSource=https%3A%2F%2Ffonts.googleapis.com%2Fcss%3Ffamily%3DArchitects%2BDaughter;sketch=1;curveFitting=1;jiggle=2;" parent="1" source="LM7p9zs2FSxzEGgW7MU9-1" target="LM7p9zs2FSxzEGgW7MU9-85" edge="1">
          <mxGeometry relative="1" as="geometry" />
        </mxCell>
        <mxCell id="LM7p9zs2FSxzEGgW7MU9-89" value="creadt" style="ellipse;whiteSpace=wrap;html=1;fillColor=#f5f5f5;strokeColor=#666666;rounded=1;fontColor=#333333;fontFamily=Lucida Console;sketch=1;curveFitting=1;jiggle=2;" parent="1" vertex="1">
          <mxGeometry x="45" y="-79.5" width="50" height="32.5" as="geometry" />
        </mxCell>
        <mxCell id="LM7p9zs2FSxzEGgW7MU9-91" style="edgeStyle=orthogonalEdgeStyle;rounded=1;hachureGap=4;orthogonalLoop=1;jettySize=auto;html=1;entryX=0.73;entryY=0.897;entryDx=0;entryDy=0;entryPerimeter=0;fontFamily=Architects Daughter;fontSource=https%3A%2F%2Ffonts.googleapis.com%2Fcss%3Ffamily%3DArchitects%2BDaughter;sketch=1;curveFitting=1;jiggle=2;" parent="1" source="LM7p9zs2FSxzEGgW7MU9-17" target="LM7p9zs2FSxzEGgW7MU9-89" edge="1">
          <mxGeometry relative="1" as="geometry" />
        </mxCell>
        <mxCell id="LM7p9zs2FSxzEGgW7MU9-92" value="passwd" style="ellipse;whiteSpace=wrap;html=1;fillColor=#f5f5f5;strokeColor=#666666;rounded=1;fontColor=#333333;fontFamily=Lucida Console;sketch=1;curveFitting=1;jiggle=2;" parent="1" vertex="1">
          <mxGeometry x="380" y="510" width="50" height="32.5" as="geometry" />
        </mxCell>
        <mxCell id="LM7p9zs2FSxzEGgW7MU9-95" value="1" style="text;html=1;align=center;verticalAlign=middle;resizable=0;points=[];autosize=1;strokeColor=none;fillColor=none;fontFamily=Architects Daughter;fontSource=https%3A%2F%2Ffonts.googleapis.com%2Fcss%3Ffamily%3DArchitects%2BDaughter;rounded=1;sketch=1;curveFitting=1;jiggle=2;" parent="1" vertex="1">
          <mxGeometry x="220" y="470" width="30" height="30" as="geometry" />
        </mxCell>
        <mxCell id="qZBbov0FA1UvYlPKStc_-2" style="edgeStyle=orthogonalEdgeStyle;rounded=0;sketch=1;hachureGap=4;jiggle=2;curveFitting=1;orthogonalLoop=1;jettySize=auto;html=1;fontFamily=Architects Daughter;fontSource=https%3A%2F%2Ffonts.googleapis.com%2Fcss%3Ffamily%3DArchitects%2BDaughter;exitX=1.017;exitY=0.86;exitDx=0;exitDy=0;exitPerimeter=0;" edge="1" parent="1" source="LM7p9zs2FSxzEGgW7MU9-1" target="qZBbov0FA1UvYlPKStc_-1">
          <mxGeometry relative="1" as="geometry" />
        </mxCell>
        <mxCell id="LM7p9zs2FSxzEGgW7MU9-96" value="1" style="text;html=1;align=center;verticalAlign=middle;resizable=0;points=[];autosize=1;strokeColor=none;fillColor=none;fontFamily=Architects Daughter;fontSource=https%3A%2F%2Ffonts.googleapis.com%2Fcss%3Ffamily%3DArchitects%2BDaughter;rounded=1;sketch=1;curveFitting=1;jiggle=2;" parent="1" vertex="1">
          <mxGeometry x="212.5" y="312.5" width="30" height="30" as="geometry" />
        </mxCell>
        <mxCell id="LM7p9zs2FSxzEGgW7MU9-97" value="1" style="text;html=1;align=center;verticalAlign=middle;resizable=0;points=[];autosize=1;strokeColor=none;fillColor=none;fontFamily=Architects Daughter;fontSource=https%3A%2F%2Ffonts.googleapis.com%2Fcss%3Ffamily%3DArchitects%2BDaughter;rounded=1;sketch=1;curveFitting=1;jiggle=2;" parent="1" vertex="1">
          <mxGeometry x="212.5" y="237.5" width="30" height="30" as="geometry" />
        </mxCell>
        <mxCell id="LM7p9zs2FSxzEGgW7MU9-98" value="m" style="text;html=1;align=center;verticalAlign=middle;resizable=0;points=[];autosize=1;strokeColor=none;fillColor=none;fontFamily=Architects Daughter;fontSource=https%3A%2F%2Ffonts.googleapis.com%2Fcss%3Ffamily%3DArchitects%2BDaughter;rounded=1;sketch=1;curveFitting=1;jiggle=2;" parent="1" vertex="1">
          <mxGeometry x="200" y="50" width="30" height="30" as="geometry" />
        </mxCell>
        <mxCell id="LM7p9zs2FSxzEGgW7MU9-106" value="active" style="ellipse;whiteSpace=wrap;html=1;fillColor=#f5f5f5;strokeColor=#666666;rounded=1;fontColor=#333333;fontFamily=Lucida Console;sketch=1;curveFitting=1;jiggle=2;" parent="1" vertex="1">
          <mxGeometry x="-25" y="19.5" width="50" height="32.5" as="geometry" />
        </mxCell>
        <mxCell id="weSuXQi-t28DzRPvCcAY-1" value="service&lt;div&gt;area&lt;/div&gt;" style="ellipse;whiteSpace=wrap;html=1;fillColor=#f5f5f5;strokeColor=#666666;rounded=1;fontColor=#333333;fontFamily=Lucida Console;sketch=1;curveFitting=1;jiggle=2;" parent="1" vertex="1">
          <mxGeometry x="405" y="253.75" width="60" height="40" as="geometry" />
        </mxCell>
        <mxCell id="weSuXQi-t28DzRPvCcAY-3" value="&lt;b&gt;contact&lt;/b&gt;" style="ellipse;whiteSpace=wrap;html=1;fillColor=#f5f5f5;strokeColor=#666666;rounded=1;fontColor=#333333;fontFamily=Lucida Console;sketch=1;curveFitting=1;jiggle=2;" parent="1" vertex="1">
          <mxGeometry x="320" y="-80" width="65" height="42.5" as="geometry" />
        </mxCell>
        <mxCell id="qZBbov0FA1UvYlPKStc_-1" value="links" style="ellipse;whiteSpace=wrap;html=1;fillColor=#f5f5f5;strokeColor=#666666;rounded=1;fontColor=#333333;fontFamily=Lucida Console;sketch=1;curveFitting=1;jiggle=2;" vertex="1" parent="1">
          <mxGeometry x="460" y="390" width="60" height="40" as="geometry" />
        </mxCell>
      </root>
    </mxGraphModel>
  </diagram>
  <diagram id="hjN-q10dX0sf7ihLGnAk" name="Page-2">
    <mxGraphModel dx="1886" dy="846" grid="1" gridSize="10" guides="1" tooltips="1" connect="1" arrows="1" fold="1" page="1" pageScale="1" pageWidth="827" pageHeight="1169" math="0" shadow="0">
      <root>
        <mxCell id="0" />
        <mxCell id="1" parent="0" />
      </root>
    </mxGraphModel>
  </diagram>
</mxfile>
